<?xml version="1.0" encoding="utf-8"?>
<!-- Generator: Adobe Illustrator 27.0.0, SVG Export Plug-In . SVG Version: 6.00 Build 0)  -->
<svg version="1.1" id="Capa_1" xmlns="http://www.w3.org/2000/svg" xmlns:xlink="http://www.w3.org/1999/xlink" x="0px" y="0px"
	 viewBox="0 0 220.2 220.2" style="enable-background:new 0 0 220.2 220.2;" xml:space="preserve">
<style type="text/css">
	.st0{fill:#ffffff96;}
	.st1{fill:none;stroke:#ffffff96;stroke-width:2.8346;stroke-miterlimit:10;}
</style>
<g>
	<g>
		<polygon class="st0" points="10.5,85.7 135.2,85.7 135.2,210.1 160.7,210.1 160.7,59.9 10.5,59.9 		"/>
		<polygon class="st0" points="184.9,109.8 184.9,134.9 165.4,134.9 165.4,160.7 210.4,160.7 210.4,109.8 		"/>
		<polygon class="st0" points="85.8,90.2 60.2,90.2 60.2,160.7 130.6,160.7 130.6,134.9 85.8,134.9 		"/>
		<rect x="60.2" y="9.8" class="st0" width="25.6" height="45.5"/>
	</g>
</g>
<g>
	<g>
		<line class="st1" x1="34.8" y1="9.6" x2="35.2" y2="210.6"/>
	</g>
	<g>
		<line class="st1" x1="85.1" y1="137.4" x2="85.2" y2="210.6"/>
	</g>
	<g>
		<line class="st1" x1="135" y1="9.6" x2="135.1" y2="82.7"/>
	</g>
	<g>
		<line class="st1" x1="185.1" y1="9.6" x2="185.4" y2="210.6"/>
	</g>
	<g>
		<g>
			<line class="st1" x1="210.6" y1="34.8" x2="9.6" y2="35.2"/>
		</g>
		<g>
			<line class="st1" x1="210.6" y1="84.9" x2="155.3" y2="85"/>
		</g>
		<g>
			<line class="st1" x1="85.4" y1="135.2" x2="9.6" y2="135.3"/>
		</g>
		<g>
			<line class="st1" x1="210.6" y1="185.1" x2="9.6" y2="185.4"/>
		</g>
	</g>
</g>
</svg>